<svg width="30" height="30" viewBox="0 0 30 30" fill="none" xmlns="http://www.w3.org/2000/svg">
<mask id="mask0_264_219" style="mask-type:alpha" maskUnits="userSpaceOnUse" x="2" y="2" width="26" height="26">
<path fill-rule="evenodd" clip-rule="evenodd" d="M15 27.5C8.09644 27.5 2.5 21.9036 2.5 15C2.5 8.09644 8.09644 2.5 15 2.5C21.9036 2.5 27.5 8.09644 27.5 15C27.5 21.9036 21.9036 27.5 15 27.5ZM17.3389 21.9957C16.7531 22.5815 15.8033 22.5815 15.2175 21.9957L9.56467 16.3428L9.56066 16.3388C8.97487 15.753 8.97487 14.8033 9.56066 14.2175L15.2175 8.56065C15.8033 7.97487 16.753 7.97487 17.3388 8.56065C17.9246 9.14644 17.9246 10.0962 17.3388 10.682L12.7426 15.2782L17.3389 19.8744C17.9247 20.4602 17.9247 21.4099 17.3389 21.9957Z" fill="black"/>
</mask>
<g mask="url(#mask0_264_219)">
<rect width="30" height="30" fill="white"/>
</g>
<path fill-rule="evenodd" clip-rule="evenodd" d="M15.2175 21.9958C15.8033 22.5816 16.753 22.5816 17.3388 21.9958C17.9246 21.41 17.9246 20.4603 17.3388 19.8745L12.7426 15.2783L17.3388 10.6821C17.9246 10.0963 17.9246 9.14657 17.3388 8.56078C16.753 7.975 15.8033 7.975 15.2175 8.56078L9.56062 14.2176C8.97484 14.8034 8.97484 15.7532 9.56062 16.339C9.56183 16.3402 9.56304 16.3414 9.56426 16.3426L15.2175 21.9958Z" fill="#CEBB50"/>
</svg>
