<svg width="24" height="24" viewBox="0 0 24 24" fill="none" xmlns="http://www.w3.org/2000/svg">
<mask id="mask0_264_223" style="mask-type:alpha" maskUnits="userSpaceOnUse" x="2" y="4" width="20" height="17">
<path fill-rule="evenodd" clip-rule="evenodd" d="M1.99994 5.5C1.99994 4.67157 2.67151 4 3.49994 4H20.4999C21.3284 4 21.9999 4.67157 21.9999 5.5C21.9999 6.32843 21.3284 7 20.4999 7H3.49994C2.67151 7 1.99994 6.32843 1.99994 5.5ZM1.99994 12.5C1.99994 11.6716 2.67151 11 3.49994 11H20.4999C21.3284 11 21.9999 11.6716 21.9999 12.5C21.9999 13.3284 21.3284 14 20.4999 14H3.49994C2.67151 14 1.99994 13.3284 1.99994 12.5ZM3.49994 18C2.67151 18 1.99994 18.6716 1.99994 19.5C1.99994 20.3284 2.67151 21 3.49994 21H20.4999C21.3284 21 21.9999 20.3284 21.9999 19.5C21.9999 18.6716 21.3284 18 20.4999 18H3.49994Z" fill="#C4C4C4"/>
</mask>
<g mask="url(#mask0_264_223)">
<rect width="24" height="24" fill="white"/>
</g>
</svg>
