<svg width="31" height="30" viewBox="0 0 31 30" fill="none" xmlns="http://www.w3.org/2000/svg">
<path d="M28.657 14.805V30H2.62954V14.805C4.27702 15.1731 6.01376 14.9703 7.50968 14.235V21H23.7768V14.25C25.2753 14.9788 27.0114 15.1763 28.657 14.805ZM4.25625 0H10.7631L9.67321 9.045C9.49497 10.2613 8.85106 11.3788 7.85771 12.1957C6.86437 13.0127 5.58702 13.4753 4.25625 13.5C1.55591 13.5 0.0593293 11.595 0.921488 9.225L4.25625 0ZM12.3898 0H18.8967L20.0354 9.45C20.3119 11.7 18.5551 13.5 16.0987 13.5H15.1878C14.627 13.5134 14.0697 13.4143 13.5546 13.2095C13.0395 13.0047 12.5788 12.6992 12.2043 12.314C11.8299 11.9288 11.5508 11.4731 11.3862 10.9786C11.2216 10.4841 11.1755 9.96255 11.2511 9.45L12.3898 0ZM20.5234 0H27.0302L30.365 9.225C31.2272 11.595 29.7143 13.5 27.0302 13.5C25.6985 13.4783 24.4194 13.0168 23.4253 12.1993C22.4313 11.3818 21.7883 10.2626 21.6133 9.045L20.5234 0Z" fill="#C99000"/>
</svg>
